<svg width="120" height="23" viewBox="0 0 120 23" fill="none" xmlns="http://www.w3.org/2000/svg">
<g clip-path="url(#clip0_1_45)">
<path d="M0 10.8726C0.0489286 10.5153 0.0933506 10.1574 0.148073 9.80135C0.813116 5.50658 4.08232 1.9644 8.31336 0.953639C13.9208 -0.386103 19.5238 2.76142 21.2865 8.24207C23.2244 14.268 19.4504 20.7768 13.2474 22.1075C7.70368 23.2966 2.28097 20.1826 0.520832 14.794C0.262026 14.0008 0.10172 13.1851 0.0482848 12.3501C0.0431344 12.2697 0.0167387 12.1905 0 12.1107C0 11.698 0 11.2859 0 10.8733L0 10.8726ZM18.3135 11.5171C18.3263 7.44054 15.0275 4.12627 10.9304 4.09923C6.84807 4.07219 3.49711 7.3884 3.47393 11.4778C3.4514 15.5537 6.77017 18.8808 10.8782 18.9014C14.9728 18.9214 18.2999 15.6168 18.3135 11.5171Z" fill="#D3002D"/>
<path d="M41.3408 12.8877C43.1435 15.8724 44.9307 18.8313 46.7378 21.823C46.6135 21.8294 46.5344 21.8372 46.4552 21.8372C45.2905 21.8378 44.1253 21.8333 42.9606 21.8423C42.772 21.8436 42.6664 21.7876 42.5673 21.6234C40.9121 18.8763 39.2472 16.1344 37.5939 13.386C37.48 13.1961 37.359 13.1362 37.1439 13.1382C35.7231 13.1478 34.3022 13.1433 32.8807 13.1433H32.5704V21.8191H29.1113V0.980686C29.1911 0.980686 29.269 0.980686 29.3475 0.980686C32.7597 0.980686 36.1718 0.972961 39.5839 0.983262C42.6684 0.992275 45.23 3.22754 45.6421 6.24566C46.0303 9.08996 44.3416 11.8403 41.6235 12.7912C41.5404 12.8201 41.4567 12.8478 41.3408 12.8877ZM32.5813 4.43788V9.66423C32.6419 9.67131 32.6895 9.68225 32.7371 9.68225C35.0329 9.68225 37.3293 9.70414 39.6245 9.67517C41.3557 9.65328 42.557 8.06246 42.1411 6.40983C41.8482 5.2452 40.7981 4.44239 39.5453 4.43981C37.3075 4.4353 35.069 4.43852 32.8311 4.43852C32.7577 4.43852 32.6843 4.43852 32.5807 4.43852L32.5813 4.43788Z" fill="#D3002D"/>
<path d="M49.2286 21.823V0.998047H63.7315V4.43078H52.7064V9.67579H63.1849V13.1285H52.7045V18.3716H63.7302V21.823H49.2293H49.2286Z" fill="#D3002D"/>
<path d="M100.847 0.980663C102.238 0.980663 103.584 0.9768 104.929 0.989033C105.016 0.989676 105.124 1.09333 105.183 1.17638C106.845 3.5668 108.502 5.96044 110.16 8.35343C110.239 8.46803 110.321 8.58134 110.423 8.72555C110.493 8.63155 110.55 8.55816 110.604 8.48155C112.291 6.04799 113.978 3.61508 115.659 1.17767C115.759 1.03152 115.862 0.974869 116.039 0.976157C117.344 0.983882 118.649 0.980019 120.001 0.980019C119.939 1.07788 119.897 1.15127 119.849 1.22016C117.338 4.84796 114.824 8.47382 112.319 12.1061C112.224 12.2439 112.165 12.4364 112.164 12.6038C112.155 15.573 112.158 18.5422 112.157 21.5107C112.157 21.7279 112.05 21.8367 111.835 21.8371C110.885 21.8371 109.936 21.8371 108.985 21.8371C108.896 21.8371 108.808 21.8371 108.683 21.8371C108.683 21.7039 108.683 21.6002 108.683 21.4966C108.683 18.5441 108.68 15.5916 108.687 12.6385C108.687 12.4029 108.622 12.2169 108.49 12.025C105.992 8.42747 103.5 4.82671 101.007 1.22595C100.961 1.159 100.919 1.09011 100.848 0.980019L100.847 0.980663Z" fill="#D3002D"/>
<path d="M104.458 18.3754C104.466 18.4797 104.476 18.5518 104.476 18.6246C104.477 19.6141 104.472 20.6043 104.481 21.5938C104.483 21.7927 104.418 21.8429 104.226 21.8423C99.8813 21.8378 95.5363 21.8378 91.192 21.8423C91.0001 21.8423 90.9377 21.7921 90.9377 21.5931C90.9422 14.7972 90.9415 8.00193 90.9422 1.206C90.9422 1.14098 90.9512 1.0766 90.957 0.996765H94.4097V18.3754H104.458Z" fill="#D3002D"/>
<path d="M74.5724 0.99353H78.018V18.3671H88.0651V21.8172H74.5724V0.99353Z" fill="#D3002D"/>
<path d="M70.8776 1.00128V21.8204H67.4423V1.00128H70.8776Z" fill="#D3002D"/>
<path d="M24.0195 5.74218C22.5973 5.71385 21.4713 4.56596 21.4951 3.1702C21.5202 1.74612 22.6919 0.605958 24.0935 0.641367C25.5079 0.67742 26.6352 1.83819 26.6094 3.23072C26.5831 4.63806 25.4165 5.76921 24.0195 5.74153V5.74218Z" fill="#D3002D"/>
</g>
<defs>
<clipPath id="clip0_1_45">
<rect width="120" height="21.7185" fill="white" transform="translate(0 0.640747)"/>
</clipPath>
</defs>
</svg>
